<svg xmlns="http://www.w3.org/2000/svg" xmlns:xlink="http://www.w3.org/1999/xlink" width="256" height="256" viewBox="0 0 256 256">
  <defs>
    <clipPath id="clip-logo-base">
      <rect width="256" height="256"/>
    </clipPath>
  </defs>
  <g id="logo-base" clip-path="url(#clip-logo-base)">
    <path d="M102.858,139.607l24.571-6.152c3.19-.8,5.577-.725,8.078,2.126l17.425,19.886a8.376,8.376,0,0,1,1.125,3.365,308.519,308.519,0,0,0-10.974,38.681l-20.113,18.971c-1.6,4.653-1.563,10.109-1.57,15.106l-.05,24.363-66.861.056L54.353,224.5c-.014-3.66-2.021-7.962-2.788-11.46l-12.114-17.2L35.7,149.962,23.8,129.027l-4.351-8.9c-1.09-2.224,2.279-5.2,3.992-6.413,2.308-1.647,5.347-2.26,7.455-.1L49.45,132.645a4.541,4.541,0,0,0,3.448.648,3.869,3.869,0,0,0,1.527-3.013L47.25,92.19l19.31-4.132,7.82,29.783a4.737,4.737,0,0,0,2.881,2.8c1,.169,3.5-1.394,3.519-2.393l1.348-64.361,5.741-.8L82.322,31.413c-.917-3.59-3.4-7.159-3.9-10.96l5.068-9.9C85.232,7.148,84.465,3.8,82.838.01c4.093,1.816,4.924,6.286,4.774,10.665L87.1,25.816c-.029.781,1.749,2.478,2.537,2.33a4,4,0,0,0,2.15-2.731L91.719,9.246c-.014-3.914,1.527-7.7,5-9.229-5.483,12.382,4.437,23.61,4.093,29.6-.466,8.046-2.251,15.219-3.957,23.11l4.1,1.3.473,11.833.76,51.88a8.582,8.582,0,0,0,2.5,2.759c.917.429,2.932-.781,3.777-1.76l8-32.909,19.6,4.3-7.784,40.687-26.808,6.469L91.2,147.132a11.475,11.475,0,0,0-2.853,5.484,12.6,12.6,0,0,0,7.11,4.153,161.374,161.374,0,0,0,24.672,1.957c-8.888,8.863-9.3,25.6,1.534,33.648-6.078-11.15-8.121-21.857-.373-31.205l2.645-1.309c1.419-.7,3.756,6.476,6.888,3.351L124.5,155.8l-16.722-.12a47.462,47.462,0,0,1-17.461-3.287,71.8,71.8,0,0,1,12.536-12.776Z" transform="translate(46.943 -0.01)" fill="#E08818"/>
    <path d="M57.568,83.444,47.215,85.756a24.613,24.613,0,0,1-4.239.285l-2.1-13.574c-.389-2.533-3.418-5.346-4.4-7.821-2.427-6.136-3.581-12.185-5.159-18.769l19.8-3.51L55.629,59.8c.29,1.121-.474,2.516-1.649,3.475-.4,2.388-1.217,6.043-.389,8.484l3.97,11.685Zm68.728.691-12.058-2.179L121.851,64.3l-1.4-7.281,7.537-21.3c.913-2.592,2.739-4.852,5.569-5.369,3.319-.6,6.907-.046,8.442,2.667,1.337,2.365.5,5.346-.29,7.914L135.46,61.223c-3.078,2.243-5.633,4.91-6.312,8.379L126.3,84.129ZM1.054,64.675,0,59.283l11.924-4.7,17.139-7.4L33.6,64.791Zm62.394-6.839c.368,1.522-3.5,3.492-4.918,3.347L53.336,42.251c1.826-.866,6.227-.622,6.6.941Z" transform="translate(55 -12.628)" fill="#E08818"/>
  </g>
</svg>
